<svg xmlns="http://www.w3.org/2000/svg" width="1200" height="720" viewBox="0 0 1200 720" role="img" aria-labelledby="title desc">
  <title id="title">Latency benchmark trend</title>
  <desc id="desc">A deterministic line chart of mean and p95 total round-trip latency over benchmark commits.</desc>
  <rect width="1200" height="720" fill="#0f172a"/>
  <rect x="24" y="24" width="1152" height="672" rx="20" fill="#111827" stroke="#334155" stroke-width="2"/>
  <text x="56" y="76" fill="#f8fafc" font-family="Arial, Helvetica, sans-serif" font-size="30" font-weight="700">Latency benchmark trend</text>
  <text x="56" y="104" fill="#cbd5e1" font-family="Arial, Helvetica, sans-serif" font-size="14">Generated from docs/benchmarks/latency/history.csv</text>
  <rect x="850" y="48" width="300" height="72" rx="14" fill="#0f172a" stroke="#334155" stroke-width="1.5"/>
  <circle cx="880" cy="76" r="6" fill="#38bdf8"/>
  <text x="900" y="81" fill="#e2e8f0" font-family="Arial, Helvetica, sans-serif" font-size="13">Mean RTT</text>
  <circle cx="980" cy="76" r="6" fill="#f97316"/>
  <text x="1000" y="81" fill="#e2e8f0" font-family="Arial, Helvetica, sans-serif" font-size="13">P95 RTT</text>

  <line x1="90" y1="590" x2="1150" y2="590" stroke="#64748b" stroke-width="2"/>
  <line x1="90" y1="112" x2="90" y2="590" stroke="#64748b" stroke-width="2"/>
  <line x1="90" y1="590.00" x2="1150" y2="590.00" stroke="#1f2937" stroke-width="1"/>
<text x="78" y="594.00" fill="#94a3b8" font-family="Arial, Helvetica, sans-serif" font-size="12" text-anchor="end">0</text>
<line x1="90" y1="521.71" x2="1150" y2="521.71" stroke="#1f2937" stroke-width="1"/>
<text x="78" y="525.71" fill="#94a3b8" font-family="Arial, Helvetica, sans-serif" font-size="12" text-anchor="end">2</text>
<line x1="90" y1="453.43" x2="1150" y2="453.43" stroke="#1f2937" stroke-width="1"/>
<text x="78" y="457.43" fill="#94a3b8" font-family="Arial, Helvetica, sans-serif" font-size="12" text-anchor="end">4</text>
<line x1="90" y1="385.14" x2="1150" y2="385.14" stroke="#1f2937" stroke-width="1"/>
<text x="78" y="389.14" fill="#94a3b8" font-family="Arial, Helvetica, sans-serif" font-size="12" text-anchor="end">6</text>
<line x1="90" y1="316.86" x2="1150" y2="316.86" stroke="#1f2937" stroke-width="1"/>
<text x="78" y="320.86" fill="#94a3b8" font-family="Arial, Helvetica, sans-serif" font-size="12" text-anchor="end">8</text>
<line x1="90" y1="248.57" x2="1150" y2="248.57" stroke="#1f2937" stroke-width="1"/>
<text x="78" y="252.57" fill="#94a3b8" font-family="Arial, Helvetica, sans-serif" font-size="12" text-anchor="end">10</text>
<line x1="90" y1="180.29" x2="1150" y2="180.29" stroke="#1f2937" stroke-width="1"/>
<text x="78" y="184.29" fill="#94a3b8" font-family="Arial, Helvetica, sans-serif" font-size="12" text-anchor="end">12</text>
<line x1="90" y1="112.00" x2="1150" y2="112.00" stroke="#1f2937" stroke-width="1"/>
<text x="78" y="116.00" fill="#94a3b8" font-family="Arial, Helvetica, sans-serif" font-size="12" text-anchor="end">14</text>


  <polyline fill="none" stroke="#38bdf8" stroke-width="4" stroke-linejoin="round" stroke-linecap="round" points="90.00,207.74 443.33,359.19 796.67,295.21 1150.00,299.51"/>
  <polyline fill="none" stroke="#f97316" stroke-width="4" stroke-linejoin="round" stroke-linecap="round" points="90.00,141.40 443.33,314.88 796.67,199.00 1150.00,202.17"/>
  <circle cx="90.00" cy="207.74" r="5" fill="#38bdf8"/>
<circle cx="443.33" cy="359.19" r="5" fill="#38bdf8"/>
<circle cx="796.67" cy="295.21" r="5" fill="#38bdf8"/>
<circle cx="1150.00" cy="299.51" r="5" fill="#38bdf8"/>
  <circle cx="90.00" cy="141.40" r="5" fill="#f97316"/>
<circle cx="443.33" cy="314.88" r="5" fill="#f97316"/>
<circle cx="796.67" cy="199.00" r="5" fill="#f97316"/>
<circle cx="1150.00" cy="202.17" r="5" fill="#f97316"/>

  <text x="600" y="662" fill="#94a3b8" font-family="Arial, Helvetica, sans-serif" font-size="12" text-anchor="middle">Commits</text>
  <text x="46" y="351" fill="#94a3b8" font-family="Arial, Helvetica, sans-serif" font-size="12" text-anchor="middle" transform="rotate(-90 46 351)">RTT ms</text>
  <text x="90.00" y="616" fill="#e2e8f0" font-family="Arial, Helvetica, sans-serif" font-size="12" text-anchor="middle">4e96e9e0</text>
<text x="90.00" y="636" fill="#94a3b8" font-family="Arial, Helvetica, sans-serif" font-size="11" text-anchor="middle">2026-07-02</text>
<text x="443.33" y="616" fill="#e2e8f0" font-family="Arial, Helvetica, sans-serif" font-size="12" text-anchor="middle">3639c37a</text>
<text x="443.33" y="636" fill="#94a3b8" font-family="Arial, Helvetica, sans-serif" font-size="11" text-anchor="middle">2026-07-02</text>
<text x="796.67" y="616" fill="#e2e8f0" font-family="Arial, Helvetica, sans-serif" font-size="12" text-anchor="middle">3639c37a</text>
<text x="796.67" y="636" fill="#94a3b8" font-family="Arial, Helvetica, sans-serif" font-size="11" text-anchor="middle">2026-07-02</text>
<text x="1150.00" y="616" fill="#e2e8f0" font-family="Arial, Helvetica, sans-serif" font-size="12" text-anchor="middle">858fe6da</text>
<text x="1150.00" y="636" fill="#94a3b8" font-family="Arial, Helvetica, sans-serif" font-size="11" text-anchor="middle">2026-07-02</text>

</svg>